#tb 0: 1001/30000
#media_type 0: video
#codec_id 0: rawvideo
#dimensions 0: 128x80
#sar 0: 0/1
0,          0,          0,        1,    30720, 0x0d552cfd
0,          1,          1,        1,    30720, 0x3cf93291
0,          2,          2,        1,    30720, 0xe45b2868
0,          3,          3,        1,    30720, 0xb5df289b
0,          4,          4,        1,    30720, 0x2562259e
0,          5,          5,        1,    30720, 0xbf171878
0,          6,          6,        1,    30720, 0x695b1d73
0,          7,          7,        1,    30720, 0x89ef1614
0,          8,          8,        1,    30720, 0xe12a1dd9
0,          9,          9,        1,    30720, 0x49622ffa
0,         10,         10,        1,    30720, 0xd6832703
0,         11,         11,        1,    30720, 0xec1d0cb7
0,         12,         12,        1,    30720, 0x8bee0525
0,         13,         13,        1,    30720, 0x1e0cf0c4
0,         14,         14,        1,    30720, 0xf83fd9db
0,         15,         15,        1,    30720, 0xffb0d6ab
0,         16,         16,        1,    30720, 0xe37fe239
0,         17,         17,        1,    30720, 0x74b0f856
0,         18,         18,        1,    30720, 0x9c88d3e1
0,         19,         19,        1,    30720, 0x714db368
0,         20,         20,        1,    30720, 0x6c8e8860
0,         21,         21,        1,    30720, 0x804968e6
0,         22,         22,        1,    30720, 0x7ac56ae4
0,         23,         23,        1,    30720, 0xffd85cbf
0,         24,         24,        1,    30720, 0x1f8455f9
0,         25,         25,        1,    30720, 0x3ae65296
0,         26,         26,        1,    30720, 0x9e544ecd
0,         27,         27,        1,    30720, 0x35678e5a
0,         28,         28,        1,    30720, 0x04bae866
0,         29,         29,        1,    30720, 0xb126ed94
0,         30,         30,        1,    30720, 0x1720efc5
0,         31,         31,        1,    30720, 0x4c1b01c2
0,         32,         32,        1,    30720, 0xd0a1e866
0,         33,         33,        1,    30720, 0x0d330789
0,         34,         34,        1,    30720, 0xf5ac08bb
0,         35,         35,        1,    30720, 0x9abe0d83
0,         36,         36,        1,    30720, 0xa44c02f4
0,         37,         37,        1,    30720, 0xdc4cc688
0,         38,         38,        1,    30720, 0x22eef3c1
0,         39,         39,        1,    30720, 0xcfbc0d1d
0,         40,         40,        1,    30720, 0x7104ea31
0,         41,         41,        1,    30720, 0x80daecfb
0,         42,         42,        1,    30720, 0xe1bab995
0,         43,         43,        1,    30720, 0x43f4b896
0,         44,         44,        1,    30720, 0xa0d2bf5c
0,         45,         45,        1,    30720, 0x3556a114
